<?xml version="1.0" standalone="no"?>
<!DOCTYPE svg PUBLIC "-//W3C//DTD SVG 20010904//EN"
 "http://www.w3.org/TR/2001/REC-SVG-20010904/DTD/svg10.dtd">
<svg version="1.0" xmlns="http://www.w3.org/2000/svg"
 width="1024.000000pt" height="1024.000000pt" viewBox="0 0 1024.000000 1024.000000"
 preserveAspectRatio="xMidYMid meet">

<g transform="translate(0.000000,1024.000000) scale(0.100000,-0.100000)"
fill="#000000" stroke="none">
<path d="M0 5120 l0 -5120 5120 0 5120 0 0 5120 0 5120 -5120 0 -5120 0 0
-5120z m6459 2388 c-6 -13 -111 -202 -232 -420 l-219 -398 -653 0 c-411 0
-683 -4 -732 -11 -232 -32 -493 -175 -681 -373 -192 -203 -322 -465 -388 -781
-47 -225 -44 -553 7 -810 50 -255 112 -412 238 -603 170 -258 467 -477 726
-533 95 -21 127 -23 689 -26 664 -5 690 -3 826 65 135 67 214 160 344 404 l58
108 398 0 c219 0 401 -3 404 -8 2 -4 -64 -133 -148 -287 -83 -154 -201 -371
-261 -483 -124 -229 -198 -326 -325 -423 -87 -68 -264 -159 -365 -188 -117
-34 -254 -41 -834 -41 -504 0 -569 2 -696 20 -436 63 -739 192 -1066 454 -294
236 -517 541 -674 924 -69 169 -135 445 -167 702 -20 157 -16 584 6 735 69
474 233 874 497 1205 77 97 243 264 339 341 235 188 560 340 860 404 192 41
235 43 1163 44 l898 1 -12 -22z m1246 -37 c157 -73 192 -276 68 -397 -115
-113 -285 -92 -374 46 l-30 47 -242 6 c-133 4 -243 3 -245 -1 -1 -4 -68 -114
-148 -244 l-146 -238 -99 0 c-55 0 -99 4 -99 9 0 4 94 159 209 342 148 237
213 334 225 333 10 -1 136 -5 282 -9 l265 -8 34 41 c73 85 205 117 300 73z
m-250 -989 c87 -44 130 -116 129 -217 -1 -118 -61 -199 -173 -231 -119 -35
-255 27 -293 132 l-12 34 -628 0 c-470 0 -628 3 -628 12 0 6 21 47 46 90 l46
78 585 0 584 0 47 48 c28 29 66 56 92 65 58 22 152 16 205 -11z m-952 -504
c172 -194 454 -516 473 -540 l21 -27 279 -1 278 -1 34 41 c115 138 335 112
410 -48 63 -133 8 -271 -132 -333 -107 -47 -251 10 -301 121 l-18 40 -317 0
-316 0 -21 28 c-11 15 -74 88 -139 163 -65 75 -180 206 -254 292 l-135 156
-587 0 -587 1 52 90 51 90 572 0 573 0 64 -72z"/>
<path d="M7572 7310 c-29 -12 -44 -52 -32 -85 20 -52 102 -56 126 -6 16 32 -1
80 -33 92 -29 11 -31 11 -61 -1z"/>
<path d="M7286 6308 c-9 -12 -16 -32 -16 -44 0 -27 44 -64 76 -64 54 0 85 78
46 113 -28 25 -87 22 -106 -5z"/>
<path d="M7750 5357 c-36 -18 -48 -59 -27 -91 24 -36 62 -44 95 -19 33 24 39
62 15 90 -24 28 -53 35 -83 20z"/>
</g>
</svg>
